/* XPM */
static char *abddf1ff03e142049053389fce1b5294uMVLiJYrhIFUaux0[] = {
/* columns rows colors chars-per-pixel */
"50 50 199 2 ",
"   c None",
".  c #121213",
"X  c #1A1717",
"o  c #352A1F",
"O  c #372A1D",
"+  c #3F321B",
"@  c #232323",
"#  c #2F292E",
"$  c #383022",
"%  c #3F382D",
"&  c #232430",
"*  c #252839",
"=  c #292B3C",
"-  c #2F2F30",
";  c #312D33",
":  c #3C3A3B",
">  c #333238",
",  c #3C2D23",
"<  c #4D3319",
"1  c #4F3A1A",
"2  c #553E1B",
"3  c #5A3B1A",
"4  c #453E36",
"5  c #493627",
"6  c #57401C",
"7  c #5B451D",
"8  c #6D541E",
"9  c #5C4D2C",
"0  c #524424",
"q  c #4F4630",
"w  c #504730",
"e  c #554A3A",
"r  c #564634",
"t  c #5C5238",
"y  c #644A23",
"u  c #695527",
"i  c #7D5D2B",
"p  c #775928",
"a  c #665531",
"s  c #765D34",
"d  c #764B20",
"f  c #7D6A3C",
"g  c #2D2F43",
"h  c #2E3144",
"j  c #3D3E43",
"k  c #36384D",
"l  c #373950",
"z  c #393B53",
"x  c #3C405A",
"c  c #4A4A4C",
"v  c #5D564A",
"b  c #484957",
"n  c #525356",
"m  c #5A5751",
"M  c #56575B",
"N  c #6A5A41",
"B  c #64594C",
"V  c #795644",
"C  c #726349",
"Z  c #7C6C46",
"A  c #656158",
"S  c #636057",
"D  c #7C735F",
"F  c #786B58",
"G  c #434664",
"H  c #444865",
"J  c #4C4F6E",
"K  c #4D506F",
"L  c #5E5F66",
"P  c #4E5170",
"I  c #535779",
"U  c #55597B",
"Y  c #676869",
"T  c #7A7467",
"R  c #747276",
"E  c #6D6D77",
"W  c #88671C",
"Q  c #825323",
"!  c #815824",
"~  c #886B28",
"^  c #976A26",
"/  c #956C2D",
"(  c #956A29",
")  c #9A7527",
"_  c #856630",
"`  c #AD6E2D",
"'  c #A3692C",
"]  c #B06F2D",
"[  c #A47D23",
"{  c #AA772C",
"}  c #B2722D",
"|  c #B47E2D",
" . c #B97E2E",
".. c #B77A30",
"X. c #B77D3E",
"o. c #B37430",
"O. c #8D7750",
"+. c #B57C4E",
"@. c #B27845",
"#. c #AD7958",
"$. c #B77E51",
"%. c #9B7675",
"&. c #827D74",
"*. c #AA7961",
"=. c #A98123",
"-. c #AA842A",
";. c #BD842D",
":. c #BB8F28",
">. c #B78629",
",. c #A3843A",
"<. c #BE8630",
"1. c #B08F3E",
"2. c #C1872E",
"3. c #C38B2F",
"4. c #C69627",
"5. c #CC9A27",
"6. c #C49529",
"7. c #CD9A29",
"8. c #C89529",
"9. c #D19E2B",
"0. c #C48F30",
"q. c #C79232",
"w. c #CC9F35",
"e. c #CB983D",
"r. c #D2A02C",
"t. c #CDA036",
"y. c #D2A437",
"u. c #D3A53B",
"i. c #9E814A",
"p. c #A0824C",
"a. c #BB8746",
"s. c #BB9844",
"d. c #BA8B56",
"f. c #88827A",
"g. c #B68B72",
"h. c #C39252",
"j. c #CB9C51",
"k. c #DAAF47",
"l. c #D4A847",
"z. c #DCB14B",
"x. c #C3A152",
"c. c #DEB458",
"v. c #E1B250",
"b. c #C99A60",
"n. c #CEA268",
"m. c #D3A865",
"M. c #DCB979",
"N. c #E0B967",
"B. c #E4C176",
"V. c #5A5F82",
"C. c #5C6285",
"Z. c #8C8984",
"A. c #89898A",
"S. c #898785",
"D. c #8D8E92",
"F. c #8E9095",
"G. c #9B9B9D",
"H. c #959187",
"J. c #AE8B84",
"K. c #B69C94",
"L. c #B99F98",
"P. c #B5928A",
"I. c #9C97A1",
"U. c #8C8EA5",
"Y. c #9FA1AA",
"T. c #A2A2A4",
"R. c #A4A4AC",
"E. c #A9A9AB",
"W. c #B2AFAC",
"Q. c #A8A9B6",
"!. c #B5B5BA",
"~. c #BBBCBF",
"^. c #B7B8BB",
"/. c #B2A8B2",
"(. c #C0A090",
"). c #C4AAA3",
"_. c #C2B5BB",
"`. c #E6C886",
"'. c #E9CF9B",
"]. c #E7CB9B",
"[. c #EBD39B",
"{. c #EAD097",
"}. c #BABBC9",
"|. c #C2C3C5",
" X c #C7C8CC",
".X c #CDCECE",
"XX c #CCC1C6",
"oX c #CCCBD4",
"OX c #CACCD9",
"+X c #D8D8DE",
"@X c #D0C5C9",
"#X c #D4D6E3",
"$X c #DBDCE5",
"%X c #DFDFE9",
"&X c #E2E2E4",
"*X c #E9E9E9",
"=X c #E0E1E8",
"-X c #ECEDF1",
";X c #FEFEFE",
/* pixels */
"                                                                                                    ",
"                                                                                                    ",
"                              A A S O.i.s Y oX$X%X%X%X+XF.w p.O.A A S                               ",
"                          9 s a.d.h.d.*.V R OX#X$X%X=X%XR.r *.#.h.h.h.O.t D                         ",
"                      H.,.v.d.%.%.J._.#X}.E U.Q.}.OXOXOXR Y.#X.XP.P.J.g.N.x.D                       ",
"                      v c.l.#.I./._.oX$X$X}.L c n n n M Q.#X$X+X@XXX_.g.m.N.a                       ",
"                      v M.B.m.@.+.+.g.).).).L.K.K.K.K.K.).).).(.$.$.+.n.`.B.N                       ",
"                      e a.b.n.`.{.[.M.h.h.h.h.h.h.h.h.h.h.h.h.n.[.[.[.M.m.j.2                       ",
"                      e ;. .o.X.X.X.n.'.].].'.'.'.'.'.'.'.'.'.`.l.l.u.w.8.;.6                       ",
"                      e ;.;.} ] ] }  .......<.0.q.q.q.3.3.q.e.u.z.k.7.5.5.;.6 .X                    ",
"                      e ;.;.} ] ] } ;.;.;.;.;.) 9 9 ~ 5.5.y.z.z.z.k.7.5.5.;.6 .X;X                  ",
"                      e ;.;.} ] ] } ;.;.;.;./ &.!.E.G.~ 4.y.z.z.z.k.7.5.5.;.6 .X;X                  ",
"                      e ;.;.} ] ] } ;.;.;.( f.-XY - &XT._ y.z.z.z.k.7.5.5.;.6 .X;X                  ",
"                      e ;.;.} ] ] } ;.;.2.y E.n @ . c !.w w.z.z.z.k.7.5.5.;.6 .X;X                  ",
"                      e ;.;.} ] ] } ;.;.2.y E.M @ . c ^.q w.z.z.z.k.7.5.5.;.6 .X;X                  ",
"                      e ;.;.} ] ] } ;.;.;.( f.&XR : +XG._ y.z.z.z.k.7.5.5.;.2 .X;X                  ",
"                      e | ;.} ] ] } ;.;.;.;./ R |.!.G.i 6.y.z.z.z.k.7.5.5.;.1 .X;X                  ",
"                      : 5 d Q } } } ;.;.;.;.;.) 0 0 i 8.5.y.z.z.z.z.r.=.W y X .X;X                  ",
"                      j z = # < < < ! | | | ;.6.6.6.6.6.4.w.l.s.u u 7 4 h k & .X;X                  ",
"                      j H G l g g h ; o o o o $ $ $ $ $ $ $ % 4 K J b H K H & .X;X                  ",
"                    *Xj H G z l l z G H H H H J K K K K K I C.C.C.V.K J J H & .X                    ",
"                    *Xj H G z l l z H H H H H J K K K K J I C.C.C.C.P K J H & .X                    ",
"                    *Xj H G z l l z H H H H H J K K K K J I C.C.C.C.P K J H &                       ",
"                    *Xj H G z l l z H H H H H J K K K K J I C.C.C.C.P K J H &                       ",
"                    *Xj H G z l l z H H H H H J K K K K J I C.C.C.C.P K J H &                       ",
"                  ;X*Xj H G z l l z H H H H H J K K K K J I C.C.C.C.P K J H &                       ",
"                  ;X*Xj H G z l l z H H H H H J K K K K J I C.C.C.C.P K J H &                       ",
"                  ;X*Xj H G z l l z H H H H H J K K K K J I C.C.C.C.P K J H & .X                    ",
"                  ;X*Xj H G z l l z H H H H H J K K K K J I C.C.C.C.P K J H & .X                    ",
"                    *Xj H G z l l z H H H H H J K K K K J I C.C.C.C.P K J H & .X                    ",
"                    *Xj H G z l l z H H H H H J K K K K J I C.C.C.C.P K J H & .X                    ",
"                    *Xj H G z l l z H H H H H J K K K K J I C.C.C.C.P K J H & .X                    ",
"                    *Xj H G z l l z H H H H H J K K K K J I C.C.C.C.P K J H & .X                    ",
"                  ;X*Xj H G z l l z H H H H H J K K K K J I C.C.C.C.P K J H & .X                    ",
"                  ;X*Xj H G l l l z H H H H H J K K K K J I C.C.C.C.P J J H & .X                    ",
"                    *X: > x k l l z G H H H H J K K K K J I C.C.C.C.P J G k X .X                    ",
"                    *Xe i O o = = = l H H H H K P P P P K I C.U G G z : + y 2 .X                    ",
"                    *Xe <.3.' 3 3 3 , & & & & * * * * * * = g : u u 8 [ 9.3.2 .X                    ",
"                    *Xe ;.;.} ` ` } { ^ ^ ^ ^ [ =.=.[ [ [ -.1.s.z.k.7.5.5.;.6 .X                    ",
"                    *Xe ;.;.} ] ] } ;.;.;.;.3.:.~ ~ =.9.5.y.z.z.z.k.7.5.5.;.6 .X                    ",
"                    *Xe ;.;.} ] ] } ;.;.;.;.| C D.D.T [ 5.y.z.z.z.k.7.5.5.;.6                       ",
"                    *Xe ;.;.} ] ] } ;.;.;.| C oX-X-X$XT -.y.z.z.z.k.7.5.5.;.6                       ",
"                    *Xe ;.;.} ] ] } ;.;.2.y W.I.G.G.G. Xw w.z.z.z.k.7.5.5.;.6                       ",
"                    *Xe ;.;.} ] ] } ;.;.2.y T.- @ @ @ E.w w.z.z.z.k.7.5.5.;.6                       ",
"                    *Xe ;.;.} ] ] } ;.;.2.p T. X X X X|.a t.z.z.z.k.7.5.5.;.6                       ",
"                      e <.;.} ] ] } ;.;.;.;.s T.-X-X|.N >.y.z.z.z.k.7.5.5.;.6 .X                    ",
"                      W.i | ` ] ] } ;.;.;.;.>.s m m N >.5.y.z.z.z.k.7.6.6./ Z.                      ",
"                        E.m B p Q Q { ;.;.;.3.6.:.:.6.7.7.y.z.l.,.,.) f B Z.                        ",
"                            &XA.A.A.F y y y y 8 8 8 8 u 8 p s Z A.A.A.|.;X;X                        ",
"                            ;X;X;X;X+X~.~.~.~.~.~.~.~.~.~.~.~. X                                    "
};
