/* XPM */
static char *_92e6edc39dc40b0a9f9970c715300b8Gq0Bi25niMFOvyaW[] = {
/* columns rows colors chars-per-pixel */
"50 50 49 1 ",
"  c #2E2E2B",
". c #302F2C",
"X c #33322F",
"o c #343330",
"O c #383733",
"+ c #3E3C37",
"@ c #423F3A",
"# c #46433C",
"$ c #48463E",
"% c #4D4A42",
"& c #514E45",
"* c #535046",
"= c #565349",
"- c #5A564A",
"; c #5D594C",
": c #5E5D50",
"> c #625D4F",
", c #645E51",
"< c #666052",
"1 c #6C6555",
"2 c #6F6857",
"3 c #6F6958",
"4 c #6F6C5C",
"5 c #706957",
"6 c #726B59",
"7 c #736C5A",
"8 c #746D5B",
"9 c #726F5E",
"0 c #756F5C",
"q c #73705F",
"w c #77715E",
"e c #78735F",
"r c #767361",
"t c #797360",
"y c #797663",
"u c #7C7663",
"i c #7E7A66",
"p c #807B67",
"a c #807C67",
"s c #807B68",
"d c #807D69",
"f c #83816D",
"g c #85836E",
"h c #87866F",
"j c #88866F",
"k c #888670",
"l c #8B8972",
"z c #8C8A73",
"x c #8D8B74",
/* pixels */
"zzzzzzzzz&  :xzzzzzzzzz-Xha7jzzzzzzgX&8lzzzzzzzz- ",
"zd9iddddd;$.&qidddi9999%Xhy,4rdrrar3%;7idar99999% ",
"z9&16666661X@*2666<&&&&+Xf9&&-6--6;*666666-&&&&&+ ",
"z9&16666661%;1666661-&&+ +#&<1611621666666111-&&+ ",
"zr-16666662&>6666666>-&+ @%;16666666666666666>-&+ ",
"xd666666662&>766666771&+X2786666666666666666661&+ ",
"e06666666661>-66661--=&+Xd9-1666666666666666661&+ ",
"e06666666666,-3661,&&&&+Xjr-166666666666666661<&+ ",
"zp666666666666666-&&&&&+Xha666666666666666666-&&+ ",
"zs666666666666666-&&;,&+Xha666666666666666666-&&+ ",
"zi266666666666666-**<1&+Xhi266666666666666666-&&+ ",
"zq*1666666666666665561&+Xkq*16666666666666667-&&+ ",
"zy>26666666666666666<;&+Xkq&&-66666666666661>=&&+ ",
"lp666666666666666666-&&+Xf4%o#76666666666661%&&&+ ",
"87666666666666666666-&&+ Ooo>166666666666661&&&&+ ",
"uw666666666666666666,-&+ ##$1666666666666661-;-&+ ",
"zp66666666666666666661&+X2666666666666666666661&+ ",
"zs6666;=-<6665---166;=&+Xdi666666666666666666;=&+ ",
"zs6621=&&,6665*&&,16-&&+Xji166666666611116666-&&+ ",
"za66<&&&&,6665*&&&-8-&&+Xkq&166666666>&&;6667-&&+ ",
"zr-1<&&&&,2-<5*&&&*-*%+ookq&166666,--*&&;661-*%+X ",
"z9&<>&&&&,1&;1*&&&&&&%. okq&<11111-&&&&&-11<&%#.  ",
"z9&&&&&&&&&&&&&&&&&&&%X okq&&&&&&&&&&&&&&&&&&+.   ",
";%++++++++++++++++++++  X-%++++++++++++++++++X    ",
"XXXXXXXXXXXXXX.XXXXXXXXX XXXXXXXXXXXXXXXXXXXXXXXX ",
"jkkkd1dkkkkkkg=<kkkkkkk-Xfkkkd2dkkkkkkkkkkkkkkkk= ",
"zdqiu6idddiqq9>1adiqqqq%Xhdqq3>3radddyqidarqqqqq% ",
"z9&16666662*&*26661&&&&+Xkq&&&&&-6666>*266-&&&&&+ ",
"z9&16666666111666661-&&+Xkq&<1111666621666111-&&+ ",
"zr-16666666666666666-&&+Xkr;16666666666666666>-&+ ",
"zd666666666666666666-&&+Xhd66666666666666666661&+ ",
"zs6666666666666666661<&+Xha66666666666666666661&+ ",
"gi66666666666666666661&+Xdy16666666666666666661&+ ",
"7666666666666666666661&+X2,&1666666666666666661&+ ",
"dy66666666666666666661&+Xi3&1666666666666666661&+ ",
"zi26666666666666666661&+Xkr=1666666666666666621&+ ",
"zq&1666666666666666661&+Xkp666666666666666667;&&+ ",
"zy>2666666666666666661&+Xyt66666666666666661>=&&+ ",
"ki66666666666666666661&+X3666666666666666661%&&&+ ",
"-,666666666666666666;*&+Xgi66666666666666661&&&&+ ",
"#-666666666666666666,-&+Xiy66666666666666661;;-&+ ",
".%66666666666666666661&+X2666666666666666666661&+ ",
"yw666666666666666667>=&+Xdi666661-<666666666661&+ ",
"xi166666666666666621-&&+Xhi16666<$>66666666661<&+ ",
"z9&1666666666666671%&&&+Xkq&1666> -6666666667-&&+ ",
"z9&---166,;66661---&&&&+Xki<;--1>.%--<666661-*&&+ ",
"z9&&&&<11-*1111>&&&&%%%+Xhi1=&&<>o#%&;11111<&&&%+ ",
"xq&&&&&**&&&***&&&&&+.. okr&&&&&&%+o%&*****&&&%X. ",
"-%++++++++++++++++++X   X=%+++++++o.+++++++++++.  ",
"                                                  "
};
