/* XPM */
static char *cdb6c32dc82e4651da94856135cbb1d4VkEJjVXdxdXbndhq[] = {
/* columns rows colors chars-per-pixel */
"50 50 221 2 ",
"   c None",
".  c black",
"X  c #010101",
"o  c gray1",
"O  c #040404",
"+  c gray2",
"@  c #070707",
"#  c gray3",
"$  c #090909",
"%  c #0C0C0C",
"&  c gray5",
"*  c #0E0E0E",
"=  c gray6",
"-  c #101010",
";  c #111111",
":  c gray7",
">  c #131313",
",  c gray8",
"<  c #151515",
"1  c #161616",
"2  c gray9",
"3  c #171719",
"4  c #181818",
"5  c #191919",
"6  c gray10",
"7  c #1B1B1B",
"8  c gray11",
"9  c #1D1D1D",
"0  c #1E1E1E",
"q  c gray12",
"w  c #202020",
"e  c gray13",
"r  c #222222",
"t  c #232323",
"y  c gray14",
"u  c #252525",
"i  c gray15",
"p  c #262726",
"a  c #272727",
"s  c #282727",
"d  c #282828",
"f  c gray16",
"g  c #2A2A2A",
"h  c gray17",
"j  c #2C2C2C",
"k  c #2D2D2D",
"l  c gray18",
"z  c #2F2F2F",
"x  c #352F25",
"c  c #373126",
"v  c gray19",
"b  c #313131",
"n  c #323232",
"m  c gray20",
"M  c #343434",
"N  c #353535",
"B  c gray21",
"V  c #373737",
"C  c gray22",
"Z  c #3A3A3A",
"A  c gray23",
"S  c #3C3C3C",
"D  c gray24",
"F  c #3E3E3E",
"G  c #3F3F3F",
"H  c #514022",
"J  c #584523",
"K  c #444035",
"L  c gray25",
"P  c #414141",
"I  c gray26",
"U  c #434343",
"Y  c #444444",
"T  c gray27",
"R  c #464646",
"E  c gray28",
"W  c #484848",
"Q  c #494949",
"!  c gray29",
"~  c #4A4A4B",
"^  c #4B4B4B",
"/  c #4C4C4C",
"(  c #4D4D4E",
")  c #4E4E4E",
"_  c gray31",
"`  c #505050",
"'  c #515151",
"]  c gray32",
"[  c #535353",
"{  c gray33",
"}  c #555555",
"|  c gray34",
" . c #575758",
".. c #585858",
"X. c gray35",
"o. c #5A5A5A",
"O. c #5B5B5B",
"+. c gray36",
"@. c #5D5D5D",
"#. c #5D5E5E",
"$. c gray37",
"%. c #5F5F5F",
"&. c #606060",
"*. c gray38",
"=. c #626262",
"-. c gray39",
";. c #646464",
":. c #656565",
">. c gray40",
",. c #686868",
"<. c DimGray",
"1. c #6A6A6A",
"2. c gray42",
"3. c #6C6C6C",
"4. c #6D6D6D",
"5. c gray43",
"6. c #6F6F6F",
"7. c gray44",
"8. c #717171",
"9. c #727272",
"0. c gray45",
"q. c #747474",
"w. c gray46",
"e. c #767676",
"r. c #777777",
"t. c gray47",
"y. c #797979",
"u. c gray48",
"i. c #7B7B7B",
"p. c #7E7C79",
"a. c #7F7D7A",
"s. c #7C7C7C",
"d. c gray49",
"f. c #7E7E7E",
"g. c gray50",
"h. c #926A1D",
"j. c #98701D",
"k. c #AD841C",
"l. c #B0871C",
"z. c #D7B51C",
"x. c #DDB51D",
"c. c #8A8478",
"v. c #9D9075",
"b. c #9F9275",
"n. c #A79974",
"m. c #A89978",
"M. c #B4A775",
"N. c #B4A776",
"B. c #818181",
"V. c gray51",
"C. c #838383",
"Z. c #848484",
"A. c gray52",
"S. c #868686",
"D. c gray53",
"F. c #888888",
"G. c gray54",
"H. c #8B8B8B",
"J. c gray55",
"K. c #8E8E8E",
"L. c #909090",
"P. c gray57",
"I. c #939291",
"U. c #929292",
"Y. c #939292",
"T. c #939393",
"R. c #959392",
"E. c gray58",
"W. c #959595",
"Q. c #969695",
"!. c gray59",
"~. c #979797",
"^. c #989692",
"/. c #9A9895",
"(. c #9B9995",
"). c #9D9B95",
"_. c #9C9A97",
"`. c #9F9D97",
"'. c #989899",
"]. c gray60",
"[. c #9A9A9A",
"{. c #9B9B9B",
"}. c #9D9D9D",
"|. c #9D9D9E",
" X c gray62",
".X c #9F9F9F",
"XX c #9F9FA0",
"oX c #A0A0A0",
"OX c #A2A2A2",
"+X c gray64",
"@X c #A4A4A4",
"#X c #A5A5A5",
"$X c #A5A5A6",
"%X c gray65",
"&X c #A7A7A7",
"*X c gray66",
"=X c #A9A9A9",
"-X c #AAAAAA",
";X c gray67",
":X c #AEAEAE",
">X c #B1B1B1",
",X c #B2B2B2",
"<X c gray70",
"1X c #B4B4B4",
"2X c gray71",
"3X c #B6B6B6",
"4X c #B9B9B9",
"5X c #BCBCBC",
"6X c gray",
"7X c gray75",
"8X c #C1C1C1",
"9X c gray77",
"0X c #C6C6C6",
"qX c #CBCBCB",
"wX c #D2D2D2",
"eX c gray83",
"rX c #D5D5D5",
"tX c gray84",
"yX c gray85",
"uX c gray93",
"iX c #F3F3F3",
/* pixels */
"                                                                                                    ",
"                                                                                                    ",
"                                                                                                    ",
"                                                                                                    ",
"                                                                                                    ",
"                                                                                                    ",
"                                                                                                    ",
"                                                                                                    ",
"                                                                                                    ",
"                                                                                                    ",
"                                                                                                    ",
"                                  I                                 V                               ",
"                        { C V C m 4 {                               i k C V C 1.                    ",
"                      3.k r r ^ f.V.U.1.=.                        1.k r r r I f.i.                  ",
"                    8.< k m m ) 1.%.:.; m 1.f.-X                r.I V m m m R 8.1.f.                ",
"                    3.=.g r k g V 1.:.:.) V r R <X            f.C ) i q k m k C 8.r Z.              ",
"                        { ; 4 m i.      :.^ ` ^ =.8X        f.k { k C C k i r q i i S               ",
"                          ` = i.          %.X.-X+XI rX    r.q m k k     :.; < ; < ;                 ",
"                                            f.^ 1X-Xm yXuX3.4 g S                                   ",
"                                            Z.I 1X<Xi rX8.k q ^ 9X                                  ",
"                                            Z.I 4X1Xi rX^ q r ` iX                                  ",
"                                         XZ.R i :.=.; 8.g = ; k Z.Z.Z.H.wX                          ",
"                                    :X-XS r i i r 4 4 4 r i i r < $ $ = 8.&X9X                      ",
"                                qX-Xk r I X.%.%.{ R ^ ^ %.=.%.{ S q ; < ; r 1.                      ",
"                              U.< q R %.=.) S V C R =.=.=.^ V C I S 4 g 4 ` 3.R                     ",
"                          %.r m R %.=.:.) C V m m m %.=.` V g V S X.I r i g ^ f.)                   ",
"                      X.^ k r g V S S S V m k k k k C C V k k k m S C r.I q { +Xr.)                 ",
"                  3.8.:.=.r.H.U.U.U.U.U.U.U.U.U.U.U.U.U.U.U.U.H.r.` ` E.X.i I H.U.4                 ",
"                8.R { J.U.{.-X<X<X<X<X<X<X<X<X<X<X<X<X<X-X&X<X<XH.Z.Z.E.Z.R i X.V.%.Z.              ",
"              X.I {. XJ.r.3.3.3.i.J.E.J.r.3.3.3.r.J.E.J.3.1.Z.U.f.-X&XE.+X:.q V r.{.r               ",
"            r.4 { &X7X{.` S I R =.+X7X XX.R R R X. X7XXX%.:.f.Z. XE.U.E.E.:.g g Z.1.<               ",
"            3.) U./.`./.U.U.U.U.U.E.E.E.U.U.U.U.U.E.).).^.R.E.Z.%.^  X` V.i.m r :.:.<               ",
"            8.3 H k.z.j.c i i i i i i i i i i i s x h.x.l.J i i m U.{.m i.i.C V =.:.<               ",
"               .K m.N.b.a.i.i.i.i.i.i.i.i.i.i.i.i.a.b.N.n.c.i.%.k &X XI V.r.V V I I =               ",
"              r.r ) ^ ^ ^ ^ ^ ^ ^ ^ ^ ^ ^ ^ ^ ^ ^ ^ ^ ^ ^ ^ ^ S 4 ` i.8.1.) g < < < @               ",
"              r.= i m k i q q 4 4 q q q 4 4 q q 4 4 q r k k m k r ; C r.I q < o o o o               ",
"              r.< S ` ` C g i i i g g g g i i i i g g m ^ ` ` ^ k = @ S ^ R k o o o o               ",
"                < @ @ $ r r r i 4 @ o o @ 4 r r r r r i i i i q @ o o = +XuX+Xo o o o               ",
"                  = ; r           ; ; ; < &X                  <X< ; ; < -X  -X= ; ; ;               ",
"                                                                                                    ",
"                                                                                                    ",
"                                                                                                    ",
"                                                                                                    ",
"                                                                                                    ",
"                                                                                                    ",
"                                                                                                    ",
"                                                                                                    ",
"                                                                                                    ",
"                                                                                                    ",
"                                                                                                    "
};
