/* XPM */
static char *ffbaf13549014e48d5e96d5a0b5be2d0lLYfhOfhjfEUqmLo[] = {
/* columns rows colors chars-per-pixel */
"50 50 77 1 ",
"  c #363D3F",
". c #373E40",
"X c #393F41",
"o c #3A4143",
"O c #3F484B",
"+ c #404749",
"@ c #434B4E",
"# c #495154",
"$ c #576164",
"% c #596364",
"& c #5D6769",
"* c #5E696B",
"= c #626A6D",
"- c #656E71",
"; c #677173",
": c #6A7476",
"> c #6C7679",
", c #6E787A",
"< c #727D7F",
"1 c #737E80",
"2 c #728082",
"3 c #788687",
"4 c #7B8789",
"5 c #7D8A8D",
"6 c #838E90",
"7 c #859295",
"8 c #889597",
"9 c #899699",
"0 c #87989C",
"q c #8B9A9D",
"w c #909D9F",
"e c #9B9E9F",
"r c #8D9DA2",
"t c #9C9EA0",
"y c #8FA1A2",
"u c #93A3A5",
"i c #99A7A8",
"p c #9CAAAC",
"a c #99ABB0",
"s c #A4A8A9",
"d c #A4B3B5",
"f c #A8B4B7",
"g c #A7B5B8",
"h c #ABBCBE",
"j c #ACBCBF",
"k c #AEBAC0",
"l c #A8BCC0",
"z c #AEBEC1",
"x c #B2C2C7",
"c c #B3C4C7",
"v c #B3C3C9",
"b c #B4C2C8",
"n c #B2C6CB",
"m c #B4C4CA",
"M c #B2C6CC",
"N c #B4C6CC",
"B c #B7C8CD",
"V c #B6CCCF",
"C c #B8CCD0",
"Z c #BBD2D5",
"A c #BDD1D5",
"S c #CDCFCF",
"D c #C1D5DA",
"F c #C1D7DC",
"G c #C2D8DC",
"H c #C5D9DE",
"J c #C9DFE3",
"K c #C8E0E3",
"L c #C9E0E4",
"P c #D2E8E9",
"I c #DEF6F7",
"U c #DEF7FA",
"Y c #DEF9FA",
"T c #DFFCFD",
"R c #E1F7FA",
"E c #E0F8F9",
"W c #EFFAFA",
/* pixels */
"TREYYYYYYYUYYYYYYYUYYYUEYYYYYYYYYYYUYYYYYYYUYYRPot",
"Y75555555555555555555555555555555555555555555553Xt",
"Y5<<<4uq7<1<1111<<0y741<11111<4uq7<1<1111<<0y84,oe",
"Y5<<10JBd111<11111nHj91<1<<1<10JBd111<11111nHh9,Xe",
"Y5<1hBbzd111<1117Vnxj9<<11<11hBbzd111<1117Vnxj9,Xt",
"Y540BAji91<11<17aGxfw5<11<140BAji91<11<17aGxfw5,oe",
"E5uLvjh*+<11112ZDkhuo&1<11<uLvjh*+<11112ZDkhuo&,Xt",
"Y5qBzi*==<11111znh1&=:1111<qBzi*==<11111znh1&=:,oe",
"Y56pp7O=1111<11upp%#<111<1<6pp7O=1111<11upp%#<1,ot",
"Y5*oX#<<1111<1<@Xo=<11111<1&oX#<<1111<1<@Xo=<11,ot",
"Y5:%%*<11111111&%%><1111111:%%*<11111111&%%><11,ot",
"E5<1111<111111111111111111111111<11111111111111,oe",
"Y51111<111<1111111<1111<1111<11<111<1111111<111,Xt",
"Y5<1111<<<1<111111111<<1<1111111<<<1<111111111<,oe",
"U51111211<1111111122111<1111111211<111111112211,Xt",
"Y51<<7Zzp11<1111<1lCd711<111<<7Zzp11<1111<1lCd7,Xt",
"Y5<19aDcd11<<1114rMAh91<1<<119aDcd11<<1114rMAj9,Xt",
"Y5<1BFkjd1<11<11rKmjj9<111<12BFkjd1<11<11rKmjj9>ot",
"Y50nNxj1%111112hMmzp%:11111qnNxj1%111112hMmzp$:,Xt",
"Y5uHxgu&#<11112CAjp7@=1<11<uHxgu&#<11112CAjp7@=,oe",
"Y58jhqo=<1<11<1dhh$@<<<111<8jhqo=<1<11<1dhh$@<<,ot",
"Y5,--=&>1111<11;--**<11111<,--=&>1111<11;--**<1,ot",
"U5*oo#<11111<1<@oo-11111111*oo#<11111<1<@oo-111,ot",
"Y5<<<<1<1111111<<<1<1111111<<<<1<1111111<<<1<11,ot",
"Y511<11111<<1<11111111111<<11<11111<<1<11111111,oe",
"Y5<11<<1<1<1111111<111<1111111<<1<1<1111111<111,Xt",
"Y5<111<<111<1111111<<111<111111<<111<1111111<<1,Xe",
"Y5<<<4uq7<1<1111<1qu841<<111<<4uq7<1<1111<1qu84,Xt",
"Y5<<20LBd111<11111nHh9111<<1<20LBd111<11111nHj9,Xt",
"Y5<1hBbzd111<1117Vnxj9<<11<11hBbzd111<1117Vnxj9,Xt",
"U54qBAji91<11<17aGxfw5<11<140BAji91<11<17aGxfw5,oe",
"Y5uJvjh*+<11112ZDkhuo&1<11<uLvjh*+<11112ZDkhuo&,Xt",
"Y50Bzi*==<11111znh1&=:1111<qBzi*==<11111znh1&=:,oe",
"Y56pp7O=1111<11upp%#<111<1<6pp7O=1111<11upp%#<1,ot",
"Y5&oX#<<1111<1<@Xo=<11111<1&oX#<<1111<1<@Xo=<11,ot",
"Y5:%%*<11111111&%%><1111111:%%*<11111111&%%><11,ot",
"Y5<1111<111111111111111111111111<11111111111111,oe",
"Y5<<11<111<1111111<1111<1111<11<111<1111111<111,Xt",
"Y5<1111<<<1<111111111<<1<1111111<<<1<111111111<,oe",
"Y51111211<1111111122111<1111111211<111111112211,Xt",
"Y5<1<7Zzp11<1111<1lCd711<111<<7Zzp11<1111<1lCd7,Xt",
"Y5119aDcd11<<1114rMAh91<1<<119aDcd11<<1114rMAj9,Xt",
"Y5<1BFkjd1<11<11rKmjj9<111<12BFkjd1<11<11rKmjj9>ot",
"Y50nNxj1%111112hMmzp%:11111qnNxj1%111112hMmzp$:,Xt",
"E5uHxgu&#<11112CAjp7@=1<11<uHxgu&#<11112CAjp7@=,oe",
"U58jhwo=<1<1<<1dhj$@<1<1<1<9zhwo=<1<1<<1dhj$@<<,oe",
"Y5,--=&>11<1111;--**<1<<111,--=&>11<1111;--**<1,Xt",
"Y3%X.@,,,,,,,,>+ .=,,,,,,,,% .@,,,,,,,,>+ .=,,,:Xe",
"I#XXXXXXoooXXXoXXXXXXoooXXoXXXXXXoooXXXoXXXXXXooXe",
"WsetettttttteeetettttttteeettettttttteeetetttteetS"
};
