/* XPM */
static char *_fe6a75b338141cdad0a3ba794255625ZU14fx10YXmvfYhB[] = {
/* columns rows colors chars-per-pixel */
"50 50 247 2 ",
"   c None",
".  c #3B1B18",
"X  c #3D2F16",
"o  c #3C2922",
"O  c #3D3938",
"+  c #431C1B",
"@  c #462C19",
"#  c #572A19",
"$  c #453B1A",
"%  c #5B3314",
"&  c #652C17",
"*  c #6B3617",
"=  c #793516",
"-  c #742E17",
";  c #492E28",
":  c #45332B",
">  c #4C342D",
",  c #493926",
"<  c #543729",
"1  c #4C3833",
"2  c #513C33",
"3  c #563935",
"4  c #542E2A",
"5  c #693826",
"6  c #7A3A23",
"7  c #733E30",
"8  c #4B4417",
"9  c #504619",
"0  c #69491B",
"q  c #77521E",
"w  c #4C4228",
"e  c #564828",
"r  c #5A562C",
"t  c #4D4639",
"y  c #55443C",
"u  c #5A4836",
"i  c #5A5337",
"p  c #634927",
"a  c #754924",
"s  c #6A562A",
"d  c #74572A",
"f  c #634B3C",
"g  c #664936",
"h  c #675838",
"j  c #785739",
"k  c #7C4B36",
"l  c #5B653A",
"z  c #74612C",
"x  c #676439",
"c  c #786638",
"v  c #76712E",
"b  c #4E4542",
"n  c #4E4941",
"m  c #574A43",
"M  c #5C5249",
"N  c #5D5755",
"B  c #654D45",
"V  c #64534B",
"C  c #675845",
"Z  c #765846",
"A  c #655A53",
"S  c #655B59",
"D  c #6A5B56",
"F  c #5C6544",
"G  c #69684B",
"H  c #756544",
"J  c #69714A",
"K  c #6C6359",
"L  c #756659",
"P  c #767958",
"I  c #6A7651",
"U  c #6D6563",
"Y  c #6B6868",
"T  c #726563",
"R  c #756965",
"E  c #7B6E6C",
"W  c #746E6A",
"Q  c #787667",
"!  c #7D7573",
"~  c #7D7876",
"^  c #87481B",
"/  c #8C591F",
"(  c #894A26",
")  c #974D27",
"_  c #995725",
"`  c #855A33",
"'  c #985C32",
"]  c #86502B",
"[  c #A95929",
"{  c #9D6629",
"}  c #886834",
"|  c #8A743A",
" . c #96763A",
".. c #906B33",
"X. c #A86626",
"o. c #B66829",
"O. c #A66A3A",
"+. c #B2732C",
"@. c #A8561C",
"#. c #C87835",
"$. c #825E43",
"%. c #886B48",
"&. c #827549",
"*. c #967843",
"=. c #967855",
"-. c #8E6E4E",
";. c #A87948",
":. c #A87B58",
">. c #AF744D",
",. c #857A6A",
"<. c #977768",
"1. c #857A76",
"2. c #896E68",
"3. c #A87C68",
"4. c #7F882C",
"5. c #7C8968",
"6. c #78825F",
"7. c #88892C",
"8. c #99863B",
"9. c #908B28",
"0. c #A9813B",
"q. c #9A8346",
"w. c #8A855A",
"e. c #97885D",
"r. c #A98847",
"t. c #B8884C",
"y. c #B8974B",
"u. c #A88654",
"i. c #BD9D53",
"p. c #B89756",
"a. c #AC9056",
"s. c #BCA358",
"d. c #898876",
"f. c #958779",
"g. c #8B9573",
"h. c #92937D",
"j. c #918E68",
"k. c #A78B69",
"l. c #B4876B",
"z. c #A8987A",
"x. c #B7977A",
"c. c #AD916C",
"v. c #B4A86C",
"b. c #B6A478",
"n. c #B2AB77",
"m. c #99AA7F",
"M. c #CA8E55",
"N. c #C69758",
"B. c #C7974E",
"V. c #C9A958",
"C. c #D4AB5B",
"Z. c #D4B15B",
"A. c #D7B357",
"S. c #D0AE52",
"D. c #CB966E",
"F. c #C9A867",
"G. c #D7B461",
"H. c #CEAB75",
"J. c #B0758D",
"K. c #888483",
"L. c #948C8A",
"P. c #989789",
"I. c #9E9795",
"U. c #9C9A96",
"Y. c #9B8A96",
"T. c #A99986",
"R. c #A49A98",
"E. c #B49892",
"W. c #B58D87",
"Q. c #B4A487",
"!. c #A7A898",
"~. c #B8A296",
"^. c #B0B092",
"/. c #A898A1",
"(. c #AC95B0",
"). c #ACA7A5",
"_. c #B7B6AA",
"`. c #BDB9B7",
"'. c #B7A5AC",
"]. c #9CA394",
"[. c #C89887",
"{. c #C89696",
"}. c #C9938C",
"|. c #C9A789",
" X c #D5AA8B",
".X c #C6B683",
"XX c #CCA59D",
"oX c #D4A897",
"OX c #C7B59A",
"+X c #DAB59C",
"@X c #D7BA88",
"#X c #CA9AA6",
"$X c #CB98B3",
"%X c #DBB7A8",
"&X c #C9A8BA",
"*X c #D7ABBD",
"=X c #C9B8B6",
"-X c #D4B6B9",
";X c #CEA9A9",
":X c #E2B2B0",
">X c #E2A993",
",X c #BCCCB4",
"<X c #D2C893",
"1X c #C9C494",
"2X c #CAC8BA",
"3X c #D5D1B6",
"4X c #E9C8B9",
"5X c #E5CAA8",
"6X c #E2C59E",
"7X c #BAAAC5",
"8X c #BEB0CC",
"9X c #B19CD0",
"0X c #C7B4C9",
"qX c #D5B8C9",
"wX c #CBBAD4",
"eX c #D2BBD3",
"rX c #D5BBD8",
"tX c #CDAAC8",
"yX c #E4B2C8",
"uX c #D8BBE2",
"iX c #D8C4C7",
"pX c #DAD3CA",
"aX c #CEC2D5",
"sX c #D5CBDB",
"dX c #DACEDC",
"fX c #D7C5D7",
"gX c #DCD2DB",
"hX c #DBD5D5",
"jX c #E8C5CA",
"kX c #E2CBDA",
"lX c #E4DADC",
"zX c #D8CBE1",
"xX c #DDD3E3",
"cX c #DDD9E6",
"vX c #E1CCE3",
"bX c #E2D5E5",
"nX c #E3DBE9",
"mX c #E7DBE7",
"MX c #EBE4EC",
"NX c #E8E5E8",
"BX c #F1EFEF",
"VX c #EFE8F3",
"CX c #F2ECF3",
"ZX c #F2E5F3",
"AX c #FCFCFD",
"SX c #F7F5F6",
"DX c #E1E1DF",
/* pixels */
"                                                                                                    ",
"                                                                                                    ",
"                                                                                                    ",
"                                      ).!.    P.                                                    ",
"                                          L   d.G h P Q ,.                                          ",
"                h.d.d.d.          L.  G C , h e $ 9 9 8 $ i ,.            !.g.d.d.P.                ",
"            Q Q h._._.!.P.!.      i 8 $ e e e , e r G x x x h         `.U.!.^.P.g.I J P.            ",
"          Q L Q !.sX2X_.,X^.P h.P.w r r h h r $ w e e < w e e L     g.P.VXcX2XP.5.I G F             ",
"        !.C 1.7X0XwX8X5.P g.w.J w e i , w h r 9 e p j p u ; > D   6.j.2XdX`.wX/.G F F K             ",
"        _.K (.(.'.fX0XI.l l J J w < , s 8.y.y.r.i.y.y.s.| p 3 R.  J P.7X8XY.Y.eX=X)./.U.            ",
"        bX/.7XL.E.-X|.&Xw.F F J P.2 s i.S.Z.S.S.S.C.C.Z.V.j D     R.(.0X9XL.T./.[.H Q `.            ",
"      nXbXbXhX&.W.oX%XqXP.J J     K z 8.c z r.V.S.r.z } 8.| _.    wXY.).R.1.E.z.*X2.hXBX            ",
"    nXCXxXnXnX=X#X[.yXtX-XP.        H 8.| s } i.i.| z  .q.| 2X  wXnXlXpXaX=Xx. X%X{.eXNX            ",
"    VXNXMXaXcXqX{.:X-X#XbX        a.*.r.r.d F.Z.S.Z.s p.r.} u.gXrXBXNXzXhXfXXX5X4X}.&XbX            ",
"  AXAXNXnXaXZX*X%XyX#X&X          a. .r.i.d C.C.Z.G.d p.p.r.a.  sXaXCXnXmXtX}.+X4X#X#XSX            ",
"  AXMXZXxXbXhXW.jX X-XqXrX        k.a.y.C.i.A.G.G.Z.i.C.B.r.e.  AXmXfXgXZXtX}.M.D.qXQ.SX            ",
"  nXnXmXsXMXlXl.:X4X|.iXaX          k.i.A.A.Z.N.F.i.G.G.y.=.    AXfXeXCXVXfX}.M.B.$XtXmXMX          ",
"  cXmXMXgXgXiXD.H.4XF.OXbX            c.Z.A.s.s c d V.F.c.      dXtXMXNXgXbX[.N.C.D.$XbXMX          ",
"  SXgXVXSXlXfX}.4X X:.=XNX            T.V.Z.} } u.d  .V.z.      CXfXvXvXeXrX;XM.C.B.tXwXbXhX        ",
"    SXgXsXnXiXoXyX[.#XkXSX              z.p.N.V.Z.V.N.=.        AXSXfXeXbXwXyXoXH.%X=X/.wXMX        ",
"    CXbXrXeX'.jX%X[.XXeXbX              2Xc  .r.r.;.u.H pX      AXAXmXkXNXMX{.}.D.C.*XeXmXSX        ",
"    xXtX0XdX2.*XjX X=.=XzXNX    2X    1Xn.h k.` * d .Xs n.3XpX2X2XpX0XvXdXhX{.oXM.D.W.kXCXMX        ",
"  NXfXdXaXmXJ.N.6XH.W.-XBX    ^.1Xk.v.<Xj.w b.>.) :.b.s .X<X<Xv.<XQ.qXtXfXfX{.;XD.D.{.eXxXbX        ",
"hXsXVXSXsX0XJ.D.+XH.*XfXAXNXQ.v.H.<Xe.c.h < &.a.) u.h < H b.b.5X@XF.z.lX0XfX$XyX XC.*XrXaXbX        ",
"    NXgXNXeX$X@X+X+X;X=XAX3Xs.V.p.H.e.h < f h -.( a u , < %.&..XN.t.u.OXqXuXyX$XyXH.:.&XZXzX        ",
"      MXxXfXrX+X XoX:.k.OXp.N.B.*.w.!.  C B h d *.s u 2 D =Xf.=.;.t.N.t.3.3.l.[.oX>Xl.rXNX          ",
"      zX7XeXqX[.l.:.r.y.p.y.u.=.&.T.    u f h s *.p i u y     j.-.=.;.t.M.M.M.t.[.>XXX-X            ",
"        xX0XqXx.r.r.t.y.*.f.          d.< u h g d e u u >             T.c.t.O.>.>. XoXiX            ",
"            jXl...q d 8.^.            f.2 f C d t.p e u 2                 k.' ) >.>.' ~.            ",
"            T.<.d a ..OX              1.< u B p a g u u 2                   -.) ^ O.) E.            ",
"            -.....{ {                 1.< u u C Q.g < 3 2                   >.o.o.o._ ~.            ",
"            %.X.0.+.{ x.              d.> ; @ j.T.L ; ; >                 T.[ o.#.o.) ~.            ",
"            %.X.+.+.X.^                 V ; > : o : : > D                 k.[ o.#.[ ) E.            ",
"            $._ X.+.o.^                   1 1 > : 2 1 ; !         <.<.<.<.k [ o.o.@.) E.            ",
"            j _ X.o.{ ] g j j j L         T 1 y : y y 2 I.      Z ( ) ( 6 a ` ] O.' ] f.            ",
"            j ` } } d c 0 a ( ] j f.        y y : f 3 S         C $.( 6 6 ( ;.%.g g Z ] T.          ",
"          j j i e h q.| a * 6 j L 1.        1.2 2 f :           f _.%.5 = ^ ' O.;.` u k k f.        ",
"      2.j a h e  .r./ q * * 0 OXf.1.          y u B o           Z   n.0 * = = ( _ a < u 6 6 7       ",
"    Z * * < u < = ^ = * * * v 3XT.1.          1.2 y 1.          Z hXv.8.0 & - - - & 4 2 # * & 5 L   ",
"  f.# & # @ , @ % & & * 9 v 7.3XT.,.            m 3             K T.=.7.9.p 5 # < g @ @ @ < 3 y W   ",
"  P.y B 3 @ X e e < < p v 4.v d.K L.          R.1 > T         I.K V C c 7.9.f : C e $ 8 t =XK M W   ",
"  I.V ).L.$ 8 8 r i 2 c 4.x C i S W `.        B 3 3 4       E R R L m C H v h u i 8 9 8 t DX`.n W   ",
"  I.U BXI.X 8 9 9 G u c z C y V T T R E E R.L.o . . + 3 E E R R T T K M V C V h h $ w y D NX2Xb W   ",
"  I.S NXP.A M w $ G y C C m A L K T T T E E E ; # + + D ! ! R R T T T D m V V M K M A K S K.Y O N   ",
"  K.b U b N S S A A y V b S U U R L.L.U.      L 4 4 .         L.L.~ T T T m y 1 t t b b N Y K.K.U.  ",
"    ).I.T M n b m 1 1 b S U K.).                B 3 ;               ).R.U U m b N W ).).).          ",
"              U U N M S                           B 4 D                   L.1.                      ",
"              1.! ~ ~ !                           T > S                     R.                      ",
"                                                                                                    ",
"                                                                                                    "
};
