/* XPM */
static char *_b08d3586bba42d185c307cfd5c767b9WNuqLjLOlu4hjrYA[] = {
/* columns rows colors chars-per-pixel */
"50 50 231 2 ",
"   c None",
".  c #040303",
"X  c #090605",
"o  c #090806",
"O  c #0B0B0B",
"+  c #07060A",
"@  c #130101",
"#  c #1D0202",
"$  c #140F06",
"%  c #191106",
"&  c #1B150B",
"*  c #14130A",
"=  c #150C17",
"-  c #141513",
";  c #1A141A",
":  c #1B1B1A",
">  c #181817",
",  c #0F110E",
"<  c #250101",
"1  c #2E0101",
"2  c #390303",
"3  c #251B0C",
"4  c #370F13",
"5  c #240A1D",
"6  c #1D211A",
"7  c #25251B",
"8  c #352C13",
"9  c #191426",
"0  c #1F1930",
"q  c #261E3C",
"w  c #20192A",
"e  c #242424",
"r  c #282D23",
"t  c #292A29",
"y  c #252A21",
"u  c #2A3125",
"i  c #2F372A",
"p  c #333A2D",
"a  c #32362C",
"s  c #2B313C",
"d  c #343534",
"f  c #363C31",
"g  c #3A3E36",
"h  c #3B3E39",
"j  c #2F2A2C",
"k  c #450606",
"l  c #473410",
"z  c #433A2B",
"x  c #533629",
"c  c #693B10",
"v  c #3B4137",
"b  c #764916",
"n  c #7C5019",
"m  c #574C38",
"M  c #5C543E",
"N  c #5F5A3D",
"B  c #524531",
"V  c #745533",
"C  c #7E6731",
"Z  c #627731",
"A  c #281F41",
"S  c #2B2441",
"D  c #382C46",
"F  c #363048",
"G  c #4D3347",
"H  c #663755",
"J  c #6F2C59",
"K  c #731A59",
"L  c #3D4047",
"P  c #464646",
"I  c #4B4B4B",
"U  c #494746",
"Y  c #54464A",
"T  c #5B5548",
"R  c #535252",
"E  c #5C5C5C",
"W  c #5A5656",
"Q  c #4D485C",
"!  c #644E56",
"~  c #756446",
"^  c #696358",
"/  c #55576A",
"(  c #544F61",
")  c #636363",
"_  c #6B6B6C",
"`  c #696665",
"'  c #737373",
"]  c #7C7C7C",
"[  c #787774",
"{  c #756974",
"}  c #8B591C",
"|  c #915F23",
" . c #8D5F25",
".. c #936224",
"X. c #9A6524",
"o. c #946428",
"O. c #846934",
"+. c #8D6F35",
"@. c #A46728",
"#. c #A46D35",
"$. c #C17B25",
"%. c #8C2C6D",
"&. c #8F7850",
"*. c #A87B46",
"=. c #A27F51",
"-. c #B77557",
";. c #897176",
":. c #97516C",
">. c #D7576E",
",. c #F5435A",
"<. c #738C3B",
"1. c #788953",
"2. c #788F45",
"3. c #BA8B39",
"4. c #B68838",
"5. c #D78929",
"6. c #DC9134",
"7. c #EA9737",
"8. c #F29D3A",
"9. c #F49535",
"0. c #E5922A",
"q. c #D5BB21",
"w. c #F8A33B",
"e. c #F6A33B",
"r. c #CBB119",
"t. c #92805E",
"y. c #B48D5B",
"u. c #998969",
"i. c #8B976F",
"p. c #8E8976",
"a. c #AD956A",
"s. c #85A246",
"d. c #EB9A42",
"f. c #F59D44",
"g. c #F09C59",
"h. c #D6A754",
"j. c #D2A24C",
"k. c #F7A640",
"l. c #F9AA47",
"z. c #F5A24C",
"x. c #EBB75A",
"c. c #EDA44E",
"v. c #D98C77",
"b. c #F49C78",
"n. c #DEB56B",
"m. c #C5A976",
"M. c #D9B677",
"N. c #CDA666",
"B. c #E5BE7A",
"V. c #F4B66B",
"C. c #CA9841",
"Z. c #EAC47E",
"A. c #BD3493",
"S. c #CC2D9E",
"D. c #D03AA7",
"F. c #AD5393",
"G. c #8D6880",
"H. c #A77293",
"J. c #B876A7",
"K. c #D450B0",
"L. c #EA4AAD",
"P. c #D677BC",
"I. c #CA76B2",
"U. c #F06FB4",
"Y. c #DF5C94",
"T. c #DF7CC3",
"R. c #FA7DD8",
"E. c #838383",
"W. c #8B8B8B",
"Q. c #898886",
"!. c #939393",
"~. c #9D9D9D",
"^. c #999795",
"/. c #938E8B",
"(. c #A59898",
"). c #A68F94",
"_. c #ACAD96",
"`. c #B48FAB",
"'. c #A5A5A5",
"]. c #ACACAC",
"[. c #B7ADB4",
"{. c #BAB9B9",
"}. c #B4B7AC",
"|. c #FA9C9F",
" X c #D9B989",
".X c #D8B097",
"XX c #F6AD8D",
"oX c #CD87B8",
"OX c #C797BA",
"+X c #D084BB",
"@X c #FC9ABB",
"#X c #E991B3",
"$X c #C1ACBB",
"%X c #F0B0B5",
"&X c #E9C88A",
"*X c #EECE91",
"=X c #F0CE90",
"-X c #F4D498",
";X c #FADBA2",
":X c #EDD4BB",
">X c #F8E5B3",
",X c #D58AC3",
"<X c #DB99CA",
"1X c #E790C7",
"2X c #F397DA",
"3X c #F390CE",
"4X c #C9B5C3",
"5X c #D3B5CD",
"6X c #DFB4D3",
"7X c #CCA9C3",
"8X c #E7AAD6",
"9X c #F1AEC7",
"0X c #FE99E2",
"qX c #FCA6E5",
"wX c #FCB8EA",
"eX c #CCCBCB",
"rX c #D4D3D3",
"tX c #DAD7D9",
"yX c #DEC9D1",
"uX c #F6CAC9",
"iX c #E8CDD7",
"pX c #F5F4D0",
"aX c #FDC6EE",
"sX c #FECFF1",
"dX c #FDD4F2",
"fX c #E9E8E6",
"gX c #FDE3F6",
"hX c #FEEEFA",
"jX c #FEFEFE",
"kX c #F7F3F6",
"lX c #F1E0EE",
/* pixels */
"                            jXjXjX                                jXjXjXjX                          ",
"                                                              jXjXjXjXjXjXjX                        ",
"                              R ) E.          ].'.^.!.Q._ E I eXtXI P P P P P P P P P [             ",
"                                _   !.~.[.4XrX4X$X~.^.W.' E d '.'.> > > > > : > > > > P eX          ",
"                                o I ) ` `.<XiXT.K.` ) E - R kXP : E ) ) _ _ ' _ ) ) E P o ].        ",
"                                  h z *.Y.U.9X9X#X*.V t Q.Q.) E E E.Q.!.^.'.].~.^.!.E.[ W ) ]       ",
"                                  P l $.>.Y.#X%X:X5.b X   [.: ) E.^.~.'.{.eXrX$X[.'.^.W.] h h       ",
"                                      o . . X } 0.6.n X       P > E ) { <X6XiXL.F.) ) I o ].        ",
"                                E.E.) - - - - l b b l X       ~._ d d G U.1X9X1XH.d d P ]           ",
"                                . . O r r r r , . . . X         eXo X = L.U.@XuXp.. X I             ",
"                          : : : 6 u a g p a a u 7 6 , o         kX  I.A.uX9X@Xd.| X {.              ",
"                        W O - : r a p h f f f i u 7 : , Q.{.jXhXgXsXF.%.uX9X@X7.} X eX              ",
"                      o - 7 a f g p f v h h v f p r y 7 o R   sXwXR.H > uX9X@X7.} X                 ",
"                      X - y f r O a g p p f v g g a u y X Y sX0X0XwXOX).c.XX@Xd.| X                 ",
"                      X - r g a 8 M T p p f h h h p i u O G 2X2X0XsX6X  g.b.|.d...X                 ",
"                      X - r g ~ h.n.a.v h h h g h v p p y G S.2XsX  6X+X3Xb.8.8...X                 ",
"                      X : f > N Z.&XM.a.M f h e - g g g ;.F.S.2XsX  yX  b.g.f.8...X                 ",
"                      t t d X m *XM.m.N.N p d : o f g v J.P.D.2XaX      c.z.f.d.o.X                 ",
"                        ;.. . B M.8 . X 6 7 . 6 p p p p J.OX4X3X0X  ) :   XXz.e.X.X                 ",
"                        4X;.O m &Xz d p.u.u.&.T f > G G.OX`.W ,XqXwX    V.V.z.e.X.o                 ",
"                          wX; M ;XY ^ pX>X-X=Xt.h X H ,X5X/.O `.wXR.    e.k.l.w.X.X                 ",
"                          gX> m *Xm W pX>X;X=XZ.M.oXK.S.P.8XlXkX  wX! 3 8.k.l.w.X.X                 ",
"                            ; m &Xt.u.>X;X-X=XB.n.;.F.S.:.H.dXgXgX  E % 8.k.l.w.X.X                 ",
"                          R.; B M.&X=X;X;X-X=Xn.j.y J S.5 G aXaXsX  ) % 8.k.l.w.X.X                 ",
"                            tX/.7 m T T m.=X=X&.z '.7XqXP.1XgXhXjXjX) % 8.k.l.w.X.X                 ",
"                              [.R d g ^ m.Z.Z.u.W oX<X8X3XqXhX    jX) % 8.k.l.w.X.X                 ",
"                              dXkXd z &Xn.h.x..X4XD.K.I.R.qXjX    jX) % 8.k.l.w.X.X                 ",
"                              [.U F D z _.:X:X/.Q <XP.K.P.8XjX    jX) % 7.8.f.8...X                 ",
"                              ~.X F D 4 ).yX{.{ G 5X,XK.J.`.eXkX  jX) % 7.8.8.8...X                 ",
"                      O X O fX(.X S H ,.>.:.o K S.I.+X,X/ F o {.jX  ) % 7.9.9.7...X                 ",
"                    ` u.&.O.` ' W.Q T 7.V x O.-.v.v..X5X/ s X {.tX) e % 0.9.9.7.} . I               ",
"                  ) & -XB.h.3 ^ fX/ M q.l 3 j.x.x.h. XrX/ s X ].{.O o & 6.7.7.6. .o o P             ",
"                  ) $ 3.j.x.h. XfX( S D = & 3. XuXx.&XrX/ s . X : E _ ' Q.^.'.W.;.' ) P o           ",
"                  ) $ 3.C.j.C ~ [ j j C 7 & 3.N. XC ~ _ s L ] ] _ d ~ =.y.a.(.y.y.=.B P ]           ",
"                  ) & 4.3.4.& X . . 8 r.l & 3.3.4.. . . . R       X } 5.0.y.^.6.5.5.3 P             ",
"                      & $ & rXW.. U U % w q D D D q 9 . . R   W 7 c } @.@.&.Q.#.@.@.b l :           ",
"                      ) E ) kX~.X I U . 9 A S S A 9 9 e X R   P & V &.=.O.&.i.+.+.=.V x X           ",
"                              ~.X I P . 9 q q q q . t E O R   P > ) /._.Z <.s.Z 1._.' I X           ",
"                              ~.. - O . + + + 9 0 . o > X R   P - R /.}.2.2.2.2.i.{.` h X           ",
"                              ~.. . . @ @ X + = 9 X . . d ]   P O P ] ~.1.1.1.1.i.~.E d X           ",
"                              ~.. . @ k k 2 ; 9 ; 2 # X rX    P O d P R ) _ ' ) E I h t X           ",
"                                . < 1 2 < # 4 4 4 2 < X       P X - : : e e e e e : > O X           ",
"                                . 1 2 1 @ @ k k k k < X       E e e e e e e e e e e e e e           ",
"                                . . . . 1 k 2 1 < k < X                                             ",
"                                  : . . @ # # @ @ # @ X                                             ",
"                                  h o o o o o o o o o O                                             ",
"                                          kXkX                                                      ",
"                                                                                                    ",
"                                                                                                    ",
"                                                                                                    "
};
