/* XPM */
static char *_d57b5fc3b504ed4f5037d66b534543dszVMTHaIoDVcxply[] = {
/* columns rows colors chars-per-pixel */
"50 50 233 2 ",
"   c None",
".  c #040303",
"X  c #090605",
"o  c #090806",
"O  c #0B0B0B",
"+  c #07060A",
"@  c #130101",
"#  c #1D0202",
"$  c #140F06",
"%  c #191106",
"&  c #1B150B",
"*  c #141209",
"=  c #150C17",
"-  c #141513",
";  c #1A141A",
":  c #1B1B1A",
">  c #181817",
",  c #0F110E",
"<  c #250101",
"1  c #2E0101",
"2  c #390303",
"3  c #251B0C",
"4  c #370F13",
"5  c #240A1D",
"6  c #1D211A",
"7  c #25251B",
"8  c #382B11",
"9  c #191426",
"0  c #1F1930",
"q  c #251E3B",
"w  c #291F3E",
"e  c #20192A",
"r  c #242424",
"t  c #282D23",
"y  c #292A29",
"u  c #252A21",
"i  c #2A3125",
"p  c #2F372A",
"a  c #333A2D",
"s  c #32362C",
"d  c #2B313C",
"f  c #343534",
"g  c #363C31",
"h  c #3A3E36",
"j  c #3B3E39",
"k  c #2D2C31",
"l  c #450606",
"z  c #493610",
"x  c #433A2B",
"c  c #533629",
"v  c #693B10",
"b  c #3B4137",
"n  c #764916",
"m  c #7B5018",
"M  c #574C38",
"N  c #5C543E",
"B  c #5F5A3D",
"V  c #524531",
"C  c #745534",
"Z  c #7E6731",
"A  c #627731",
"S  c #281F41",
"D  c #2B2441",
"F  c #382C46",
"G  c #363048",
"H  c #4D3347",
"J  c #663755",
"K  c #6F2C59",
"L  c #731A59",
"P  c #3D4047",
"I  c #464646",
"U  c #4B4B4B",
"Y  c #494746",
"T  c #54464A",
"R  c #5B5548",
"E  c #535353",
"W  c #5C5C5C",
"Q  c #5A5756",
"!  c #4D485C",
"~  c #644F51",
"^  c #756446",
"/  c #696358",
"(  c #55576A",
")  c #544F61",
"_  c #636363",
"`  c #6B6B6B",
"'  c #696665",
"]  c #737372",
"[  c #7C7C7C",
"{  c #787774",
"}  c #756974",
"|  c #654E60",
" . c #8B591C",
".. c #915F22",
"X. c #8D5F25",
"o. c #9A6524",
"O. c #946225",
"+. c #846934",
"@. c #8D6F35",
"#. c #A46728",
"$. c #A46D35",
"%. c #C17B25",
"&. c #8C2C6D",
"*. c #8F7850",
"=. c #A87B46",
"-. c #A27F51",
";. c #B77557",
":. c #897176",
">. c #97516C",
",. c #D7576F",
"<. c #F5435A",
"1. c #738C3B",
"2. c #788953",
"3. c #788F45",
"4. c #BA8B39",
"5. c #B68838",
"6. c #D78929",
"7. c #DC9134",
"8. c #EA9737",
"9. c #F29D3A",
"0. c #F49735",
"q. c #E5922A",
"w. c #D5BB21",
"e. c #F8A33B",
"r. c #F6A33B",
"t. c #CBB119",
"y. c #92805E",
"u. c #B48D5B",
"i. c #85A246",
"p. c #998A69",
"a. c #8B976F",
"s. c #8E8976",
"d. c #AD956A",
"f. c #EB9A42",
"g. c #F59D44",
"h. c #F09B59",
"j. c #D6A754",
"k. c #D2A24C",
"l. c #F7A640",
"z. c #F9AA47",
"x. c #F5A24C",
"c. c #EBB75A",
"v. c #EDA44E",
"b. c #D98C77",
"n. c #F49C78",
"m. c #DEB56B",
"M. c #C5A976",
"N. c #D9B677",
"B. c #CDA666",
"V. c #EDB971",
"C. c #CA9841",
"Z. c #E9C37C",
"A. c #BD3493",
"S. c #CC2D9E",
"D. c #CE38A3",
"F. c #D63DAF",
"G. c #AD5393",
"H. c #8D6880",
"J. c #A77293",
"K. c #B876A7",
"L. c #D450B0",
"P. c #EA4AAD",
"I. c #D677BC",
"U. c #CA75B2",
"Y. c #F06FB4",
"T. c #DF5C94",
"R. c #DF7CC3",
"E. c #FA7ED7",
"W. c #848484",
"Q. c #8C8C8B",
"!. c #898886",
"~. c #939393",
"^. c #9D9D9D",
"/. c #999795",
"(. c #938E8B",
"). c #A59898",
"_. c #A68F94",
"`. c #ACAD96",
"'. c #B48FAB",
"]. c #A5A5A5",
"[. c #ACACAC",
"{. c #B7AEB4",
"}. c #BAB9B9",
"|. c #B4B7AC",
" X c #FA9C9F",
".X c #D9B989",
"XX c #D8B097",
"oX c #F6AE8D",
"OX c #CD87B8",
"+X c #C797BA",
"@X c #D085BB",
"#X c #FB9BBC",
"$X c #FC99B7",
"%X c #E991B3",
"&X c #C1ACBB",
"*X c #F0B0B5",
"=X c #E9C88A",
"-X c #EECE91",
";X c #F0CE90",
":X c #F4D498",
">X c #FADBA2",
",X c #EDD4BB",
"<X c #F8E5B3",
"1X c #D58AC3",
"2X c #DB99CA",
"3X c #E790C7",
"4X c #F397DA",
"5X c #F28CD1",
"6X c #C9B6C4",
"7X c #D3B5CD",
"8X c #DFB4D3",
"9X c #CCA9C3",
"0X c #E7AAD6",
"qX c #F1AEC7",
"wX c #FE99E2",
"eX c #FCA6E5",
"rX c #FDB6EA",
"tX c #CCCBCB",
"yX c #D4D3D4",
"uX c #DAD7D9",
"iX c #DDCCC9",
"pX c #F6CAC9",
"aX c #E0C8D9",
"sX c #F7D4D0",
"dX c #F5F4D0",
"fX c #FCC6ED",
"gX c #FECFF1",
"hX c #FCD4F3",
"jX c #E9E8E6",
"kX c #FDE5F7",
"lX c #FEFEFE",
"zX c #F8F3F7",
"xX c #F2E1EE",
/* pixels */
"                          lXlXlXlX                                lXlXlX                            ",
"                        lXlXlXlXlXlXlX                                                              ",
"            { I I I Y Y I I I I Y uXtXY Q ` W.~./.].[.          W._ E                               ",
"          tXI - - - - > - - - - - ].].f Q ] Q./.^.&X6XyX6X{.^.~.  ]                                 ",
"        [.O I W _ ' ` ] ` ` _ _ W > I zXE - W _ ' L.R.aX2X'._ _ U O                                 ",
"      [ _ E { W.~./.^.[.].^.~.Q.W.W Q _ Q.Q.y C =.%XqXqXY.T.=.x j                                   ",
"      j j [ Q./.].{.&XyXtX}.].)./.W._ > {.  X n 6.,X*X%XT.,.%.z I                                   ",
"        [.O Y _ _ G.L.aX8X2X} _ ( > I       X m 6.q. .. . . o                                       ",
"          { I f f J.3XqX3XY.H f f ` ^.      . z n n z - - - - _ W.W.                                ",
"            Y . . s.pX#XY.P.= . O tX        . . . . , t t t t O . .                                 ",
"              }.. ..f.$XqXpXA.U.  lX        . , 6 7 t s s a h s i 6 : : >                           ",
"              tXX  .8.$XqXpX&.G.gXkXzXlX}.Q., : 7 i s g g g j a s t : - O Q                         ",
"                X  .8.#XqXpX; J E.rXgX  E X 7 u t s g b j b b g a h g s 7 - O                       ",
"                X ..f.#XoXv._.+XrXwXwXgXT X u i s h h j g a a h s O t h u - .                       ",
"                X ..f. Xn.h.  8XgXwX4X4XH , i p a j j j g a a R N 8 s h t - .                       ",
"                X O.9.9.n.#X@X8X  gX4XS.H u a a b j h j j j b d.m.j.^ h t - .                       ",
"                X O.9.g.h.n.  aX  gX4XS.G.:.h b h - r j g N d.N.=XZ.B - g : .                       ",
"                X O.g.g.x.v.      fX4XD.I.K.b h h o : f a B B.M.N.=XM . f y y                       ",
"                o o.r.x.oX  : _   wX5X6X+XK.a a a a 6 . 7 6 . . 8 N.V . . [                         ",
"                X o.r.x.c.V.    rXeX1XQ '.+XH.H > g N *.p.p.s.f x =XM O H.6X                        ",
"                X o.e.z.r.r.    E.rX'.O (.7X1XJ . b y.;X>X<XdXW T :XN ; fX                          ",
"                X o.e.z.l.9.3 | rX  zXxX0XI.S.L.OXN.N.;X>X<XdXQ M -XM > kX                          ",
"                X o.e.z.l.9.% W   kXkXhXJ.>.S.G.:.m.V.;X:X>X<Xp.y.=XM ;                             ",
"                X o.e.z.l.9.% _   gXfXfXT 5 D.K t k.m.;X:X>X>X;X=XN.V ; E.                          ",
"                X o.e.z.l.9.% _ lXlXzXkX3XI.eX9X].x *.;X;XM.R R M 7 (.uX                            ",
"                X o.e.z.l.9.% _ lX    zXeX5X0X2XOXQ p.=XZ.M./ h f E {.                              ",
"                X o.e.z.l.9.% _ lX    lXeXE.OXL.F.9XXXc.j.m.=Xx f zXhX                              ",
"                X O.9.g.9.8.% _ lX    lX0XI.L.R.2X) (.,X,X`.x F G Y {.                              ",
"                . O.9.9.9.8.% _ lX  zXtX'.K.L.1X7XH } }.iX_.4 F G . ^.                              ",
"                . O.8.0.0.8.% _   lX}.O G ( 1X@XU.S.L X >.,.<.J D . ^.jXO o O                       ",
"              U .  .8.0.0.q.% r _ uX}.. d ( 7XXXb.b.;.+.c C 8.~ ! Q.] ' +.*.p.'                     ",
"            I O O X.7.8.8.7.& O O }.].. d ( yX.Xj.c.c.k.3 z w.N ( jX/ 3 j.Z.:X& _                   ",
"          O Y _ ] :.Q.]./.!.] ` W > . . d ( uX=Xc.sX.X4.& = F D ) jX.Xj.c.k.4.$ _                   ",
"          [ I V -.u.u.^.d.u.-.^ f ` { { P d ` ^ Z .XB.4.& 7 Z i k { ^ Z k.C.4.$ _                   ",
"            I 3 6.6.7./.u.q.6. .o       E . . . . 5.4.5.& z t.8 . . . & 5.4.5.& _                   ",
"          : z n #.#.$.Q.*.#.#. .v 7 E   E . . 9 w F F F w e % Y Y . Q.yX& % &                       ",
"          . c C -.@.@.a.*.+.-.*.C & I   E . r 9 9 S D S S 9 . Y U . ^.zX_ W _                       ",
"          . Y { `.2.A i.1.A `.(._ - I   E , Q y . q q q q 9 . I Y . ^.                              ",
"          . j ' }.a.3.3.3.3.|.~.E - I   E . - O . 0 9 + + + . O - . ^.                              ",
"          . f Q ^.a.2.2.2.2.^.[ I O I   [ f . . X 9 = + X @ @ . . . ^.                              ",
"          . y j U W _ ] ` _ E I f O I     uX. # 2 ; 9 ; 2 l l @ . . ^.                              ",
"          . O - > : r r r r > > - . I       . < 2 4 4 4 # < 2 1 < .                                 ",
"          r r r r r r r r r r r r r W       . < l l l l @ @ 1 2 1 .                                 ",
"                                            . < l < 1 2 l 1 . . . .                                 ",
"                                            . @ # @ @ # # @ . . :                                   ",
"                                            O O O O O O O O O O j                                   ",
"                                                      zXzX                                          ",
"                                                                                                    ",
"                                                                                                    ",
"                                                                                                    "
};
